<svg xmlns="http://www.w3.org/2000/svg" version="1.1" xmlns:xlink="http://www.w3.org/1999/xlink" xmlns:svgjs="http://svgjs.dev/svgjs" width="1440" height="560" preserveAspectRatio="none" viewBox="0 0 1440 560"><g mask="url(&quot;#SvgjsMask1047&quot;)" fill="none"><rect width="1440" height="560" x="0" y="0" fill="#1e3266"></rect><path d="M1512 560L0 560 L0 221.75Q115.63 217.38, 120 333.01Q172.54 265.55, 240 318.09Q238.86 244.94, 312 243.8Q341.75 201.55, 384 231.29Q448.36 223.64, 456 288Q537.11 249.11, 576 330.21Q584 218.21, 696 226.21Q726.83 185.04, 768 215.87Q877.22 205.09, 888 314.31Q921.15 227.46, 1008 260.6Q1034.3 214.9, 1080 241.2Q1166.7 207.9, 1200 294.61Q1225.33 247.94, 1272 273.27Q1324.05 205.32, 1392 257.37Q1445.94 191.31, 1512 245.25z" fill="#182f5d"></path><path d="M1464 560L0 560 L0 400.4Q67.78 348.18, 120 415.96Q132.08 356.04, 192 368.13Q210.69 314.82, 264 333.52Q286.49 284, 336 306.49Q391.75 290.24, 408 345.99Q502.9 320.89, 528 415.79Q556.27 372.06, 600 400.33Q594.27 322.61, 672 316.88Q725.41 298.29, 744 351.71Q802.16 337.87, 816 396.03Q881.3 341.33, 936 406.63Q945.59 344.22, 1008 353.8Q1029.29 303.09, 1080 324.38Q1160.01 284.38, 1200 364.39Q1256.05 348.44, 1272 404.49Q1322.17 334.66, 1392 384.83Q1402.26 323.09, 1464 333.35z" fill="#25467d"></path><path d="M1464 560L0 560 L0 503.47Q22.59 454.06, 72 476.65Q87.05 419.7, 144 434.75Q157.81 376.56, 216 390.37Q257.67 360.04, 288 401.71Q381.25 374.96, 408 468.21Q450.19 390.4, 528 432.6Q552.91 385.51, 600 410.42Q693.43 383.86, 720 477.29Q743.22 428.5, 792 451.72Q875.38 415.1, 912 498.48Q958.92 425.4, 1032 472.33Q1072.82 393.14, 1152 433.96Q1241.04 403, 1272 492.03Q1301.98 450.01, 1344 479.99Q1415.55 431.53, 1464 503.08z" fill="#356cb1"></path><path d="M1488 560L0 560 L0 567.68Q48.32 544, 72 592.32Q76.94 477.26, 192 482.21Q250.37 468.58, 264 526.94Q307.38 450.32, 384 493.7Q428.18 465.88, 456 510.05Q532.21 466.26, 576 542.48Q648.29 494.77, 696 567.06Q737.1 488.16, 816 529.26Q843.64 484.9, 888 512.55Q907.1 459.65, 960 478.75Q1001.94 448.69, 1032 490.64Q1112.36 451, 1152 531.35Q1221.17 480.52, 1272 549.69Q1284.38 490.08, 1344 502.46Q1368.79 455.25, 1416 480.03Q1469.11 461.14, 1488 514.25z" fill="white"></path></g><defs><mask id="SvgjsMask1047"><rect width="1440" height="560" fill="#ffffff"></rect></mask></defs></svg>